<svg xmlns="http://www.w3.org/2000/svg" viewBox="0 0 253.5 192"><defs><style>.cls-1{fill:none;stroke:#9e9e9e;stroke-linecap:round;stroke-miterlimit:10;stroke-width:2px;}.cls-2{fill:#083d58;}.cls-3{fill:#f2f2f2;}.cls-4,.cls-9{fill:#d44c57;}.cls-5{fill:#f1a85e;}.cls-6{fill:#24b574;}.cls-7{font-size:23.14px;fill:#3498db;font-family:Montserrat-Bold, Montserrat;font-weight:700;}.cls-8{fill:#fff;}.cls-9{letter-spacing:-0.01em;}</style></defs><title>Asset 2</title><g id="Layer_2" data-name="Layer 2"><g id="Layer_1-2" data-name="Layer 1"><line class="cls-1" x1="47" y1="19" x2="139" y2="19"/><line class="cls-1" x1="47" y1="31" x2="139" y2="31"/><line class="cls-1" x1="68" y1="43" x2="118" y2="43"/><path class="cls-2" d="M253,28c0-13.66-8.75-25-22.42-25H26.52C12.86,3,0,14.32,0,28v151.5C0,186.31,7.32,192,14.15,192H243c6.83,0,10-5.69,10-12.52Z"/><path class="cls-3" d="M14.15,0H240.48A12.52,12.52,0,0,1,253,12.52V31a0,0,0,0,1,0,0H0a0,0,0,0,1,0,0V14.15A14.15,14.15,0,0,1,14.15,0Z"/><path class="cls-4" d="M20,15.5A4.5,4.5,0,0,1,15.5,20h0A4.5,4.5,0,0,1,11,15.5h0A4.5,4.5,0,0,1,15.5,11h0A4.5,4.5,0,0,1,20,15.5Z"/><path class="cls-5" d="M38,15.5A4.5,4.5,0,0,1,33.5,20h0A4.5,4.5,0,0,1,29,15.5h0A4.5,4.5,0,0,1,33.5,11h0A4.5,4.5,0,0,1,38,15.5Z"/><path class="cls-6" d="M56,15.5A4.5,4.5,0,0,1,51.5,20h0A4.5,4.5,0,0,1,47,15.5h0A4.5,4.5,0,0,1,51.5,11h0A4.5,4.5,0,0,1,56,15.5Z"/><text class="cls-7" transform="translate(34.04 112.39)">DESIGN<tspan class="cls-8" x="91.54" y="0"> </tspan><tspan class="cls-6" x="97.65" y="0">+</tspan><tspan class="cls-8" x="111.17" y="0"> </tspan><tspan class="cls-9" x="117.28" y="0">C</tspan><tspan class="cls-4" x="133.87" y="0">ODE</tspan></text></g></g></svg>