<svg id="Layer_1" data-name="Layer 1" xmlns="http://www.w3.org/2000/svg" viewBox="0 0 256 256"><defs><style>.cls-1{fill:#d8d8d8;}.cls-2{fill:#f2f2f2;}.cls-3{fill:#3498db;}.cls-10,.cls-11,.cls-12,.cls-13,.cls-4,.cls-5,.cls-6{fill:none;stroke-linecap:round;stroke-width:2px;}.cls-4{stroke:#fff;}.cls-12,.cls-4,.cls-5,.cls-6{stroke-miterlimit:10;}.cls-5{stroke:#cecece;}.cls-6{stroke:#9e9e9e;}.cls-7{opacity:0.3;}.cls-8{fill:#083d58;}.cls-9{fill:#d44c57;}.cls-10{stroke:#d44c57;}.cls-10,.cls-11,.cls-13{stroke-linejoin:round;}.cls-11{stroke:#3498db;}.cls-12{stroke:#f1a85e;}.cls-13{stroke:#24b574;}.cls-14{fill:#f1a85e;}.cls-15{fill:#24b574;}</style></defs><title>wireframes</title><path class="cls-1" d="M16,34a5.92,5.92,0,0,0-6,5.61V216.39A5.92,5.92,0,0,0,16,222H234.83c3.1,0,5.17-2.51,5.17-5.61V39.61c0-3.1-2.07-5.61-5.17-5.61Z"/><rect class="cls-2" x="10" y="62" width="230" height="67"/><rect class="cls-3" x="54" y="155" width="34" height="34" rx="16.84" ry="16.84"/><rect class="cls-3" x="109" y="155" width="34" height="34" rx="16.84" ry="16.84"/><rect class="cls-3" x="163" y="155" width="34" height="34" rx="16.84" ry="16.84"/><line class="cls-4" x1="51" y1="202" x2="93" y2="202"/><line class="cls-4" x1="51" y1="208" x2="93" y2="208"/><line class="cls-4" x1="61" y1="214" x2="83" y2="214"/><line class="cls-4" x1="58" y1="48" x2="81" y2="48"/><line class="cls-4" x1="162" y1="48" x2="172" y2="48"/><line class="cls-4" x1="193" y1="48" x2="203" y2="48"/><line class="cls-4" x1="178" y1="48" x2="187" y2="48"/><line class="cls-5" x1="58" y1="87" x2="100" y2="87"/><line class="cls-5" x1="58" y1="93" x2="100" y2="93"/><line class="cls-5" x1="58" y1="99" x2="100" y2="99"/><line class="cls-5" x1="68" y1="104" x2="90" y2="104"/><line class="cls-4" x1="106" y1="202" x2="148" y2="202"/><line class="cls-4" x1="106" y1="208" x2="148" y2="208"/><line class="cls-4" x1="116" y1="214" x2="138" y2="214"/><line class="cls-4" x1="112" y1="141" x2="141" y2="141"/><line class="cls-4" x1="167" y1="141" x2="196" y2="141"/><line class="cls-4" x1="57" y1="141" x2="87" y2="141"/><rect class="cls-3" x="125" y="72" width="71" height="48" transform="translate(321 192) rotate(180)"/><line class="cls-6" x1="160" y1="143" x2="203" y2="143"/><line class="cls-6" x1="160" y1="149" x2="203" y2="149"/><line class="cls-6" x1="170" y1="155" x2="193" y2="155"/><path class="cls-7" d="M244.37,135H137a2,2,0,0,0-2,2v83a2,2,0,0,0,2,2H245.35a4.65,4.65,0,0,0,4.65-4.65V140.63A5.64,5.64,0,0,0,244.37,135Z"/><path class="cls-8" d="M254,149H139.41a.42.42,0,0,0-.41.39V220a2,2,0,0,0,2,2H252a2,2,0,0,0,2-2Z"/><path class="cls-2" d="M141,135H252a2,2,0,0,1,2,2v12a0,0,0,0,1,0,0H139a0,0,0,0,1,0,0V137A2,2,0,0,1,141,135Z"/><rect class="cls-9" x="144" y="139" width="6" height="6" rx="2.81" ry="2.81"/><line class="cls-10" x1="149" y1="156" x2="193" y2="156"/><line class="cls-11" x1="201" y1="156" x2="245" y2="156"/><line class="cls-10" x1="149" y1="165" x2="171" y2="165"/><line class="cls-11" x1="165" y1="173" x2="188" y2="173"/><line class="cls-10" x1="234" y1="165" x2="245" y2="165"/><line class="cls-10" x1="198" y1="173" x2="208" y2="173"/><line class="cls-12" x1="149" y1="173" x2="156" y2="173"/><line class="cls-13" x1="180" y1="165" x2="226" y2="165"/><line class="cls-13" x1="217" y1="173" x2="245" y2="173"/><line class="cls-10" x1="149" y1="207" x2="171" y2="207"/><line class="cls-11" x1="165" y1="215" x2="188" y2="215"/><line class="cls-10" x1="234" y1="207" x2="245" y2="207"/><line class="cls-10" x1="198" y1="215" x2="208" y2="215"/><line class="cls-12" x1="149" y1="215" x2="156" y2="215"/><line class="cls-13" x1="180" y1="207" x2="226" y2="207"/><line class="cls-13" x1="217" y1="215" x2="245" y2="215"/><line class="cls-13" x1="149" y1="182" x2="193" y2="182"/><line class="cls-12" x1="201" y1="182" x2="245" y2="182"/><line class="cls-10" x1="149" y1="190" x2="171" y2="190"/><line class="cls-12" x1="165" y1="199" x2="188" y2="199"/><line class="cls-10" x1="234" y1="190" x2="245" y2="190"/><line class="cls-11" x1="198" y1="199" x2="208" y2="199"/><line class="cls-11" x1="149" y1="199" x2="156" y2="199"/><line class="cls-13" x1="180" y1="190" x2="226" y2="190"/><line class="cls-13" x1="217" y1="199" x2="245" y2="199"/><rect class="cls-14" x="153" y="139" width="6" height="6" rx="2.81" ry="2.81"/><rect class="cls-15" x="163" y="139" width="6" height="6" rx="2.81" ry="2.81"/><path class="cls-7" d="M11.75,107A6.78,6.78,0,0,0,5,114V216.39A5.39,5.39,0,0,0,10.35,222H72.08A2.9,2.9,0,0,0,75,219.19V109.76A2.87,2.87,0,0,0,72.08,107Z"/><path class="cls-1" d="M3.34,107C1.79,107,1,108.21,1,109.76V219.19c0,1.55.79,2.81,2.34,2.81H67.87A3.1,3.1,0,0,0,71,219.19V109.76A3.06,3.06,0,0,0,67.87,107Z"/><rect class="cls-2" x="1" y="120" width="70" height="77"/><line class="cls-4" x1="16" y1="114" x2="26" y2="114"/><rect class="cls-3" x="12" y="129" width="47" height="33" transform="translate(71 291) rotate(180)"/><line class="cls-5" x1="15" y1="170" x2="57" y2="170"/><line class="cls-5" x1="15" y1="176" x2="57" y2="176"/><line class="cls-5" x1="15" y1="181" x2="57" y2="181"/><line class="cls-5" x1="24" y1="187" x2="47" y2="187"/><line class="cls-4" x1="28" y1="205" x2="45" y2="205"/><path class="cls-3" d="M51.6,222A16.81,16.81,0,0,0,21,222Z"/></svg>