<svg id="Layer_1" data-name="Layer 1" xmlns="http://www.w3.org/2000/svg" viewBox="0 0 256 256"><defs><style>.cls-1{fill:#cecece;}.cls-2{fill:#f2f2f2;}.cls-3{fill:#3498db;}.cls-4{fill:#fff;}.cls-5,.cls-6,.cls-7{fill:none;stroke-linecap:round;stroke-miterlimit:10;stroke-width:2px;}.cls-5{stroke:#9e9e9e;}.cls-6{stroke:#fff;}.cls-7{stroke:#cecece;}.cls-8{opacity:0.3;}</style></defs><title>wireframes</title><path class="cls-1" d="M84.5,40c-4.42,0-8.5,3.33-8.5,7.75v160.5c0,4.42,4.08,7.75,8.5,7.75h112a7.38,7.38,0,0,0,7.5-7.75V47.75A7.38,7.38,0,0,0,196.5,40Z"/><rect class="cls-2" x="76" y="60" width="128" height="48"/><path class="cls-3" d="M76,176H204a0,0,0,0,1,0,0v31.59a8.41,8.41,0,0,1-8.41,8.41H84.5a8.5,8.5,0,0,1-8.5-8.5V176A0,0,0,0,1,76,176Z"/><rect class="cls-4" x="89" y="126" width="24" height="24" rx="12" ry="12"/><rect class="cls-4" x="128" y="126" width="24" height="24" rx="12" ry="12"/><rect class="cls-4" x="167" y="126" width="24" height="24" rx="12" ry="12"/><line class="cls-5" x1="86" y1="160" x2="116" y2="160"/><line class="cls-5" x1="86" y1="164" x2="116" y2="164"/><line class="cls-5" x1="93" y1="168" x2="109" y2="168"/><line class="cls-6" x1="91" y1="50" x2="107" y2="50"/><line class="cls-6" x1="166" y1="50" x2="173" y2="50"/><line class="cls-6" x1="188" y1="50" x2="195" y2="50"/><line class="cls-6" x1="177" y1="50" x2="184" y2="50"/><line class="cls-7" x1="91" y1="78" x2="121" y2="78"/><line class="cls-7" x1="91" y1="82" x2="121" y2="82"/><line class="cls-7" x1="91" y1="86" x2="121" y2="86"/><line class="cls-7" x1="98" y1="90" x2="114" y2="90"/><line class="cls-5" x1="125" y1="160" x2="155" y2="160"/><line class="cls-5" x1="125" y1="164" x2="155" y2="164"/><line class="cls-5" x1="132" y1="168" x2="148" y2="168"/><line class="cls-5" x1="164" y1="160" x2="194" y2="160"/><line class="cls-5" x1="164" y1="164" x2="194" y2="164"/><line class="cls-5" x1="171" y1="168" x2="187" y2="168"/><line class="cls-6" x1="130" y1="184" x2="151" y2="184"/><line class="cls-5" x1="130" y1="116" x2="151" y2="116"/><line class="cls-5" x1="169" y1="116" x2="190" y2="116"/><line class="cls-5" x1="91" y1="116" x2="112" y2="116"/><path class="cls-4" d="M86.63,192H193.5a.5.5,0,0,1,.5.5V216a0,0,0,0,1,0,0H86a0,0,0,0,1,0,0V192.63A.63.63,0,0,1,86.63,192Z"/><rect class="cls-3" x="140" y="67" width="50" height="34" rx="1" ry="1" transform="translate(330 168) rotate(180)"/><path class="cls-8" d="M63.5,134c-2.21,0-4.5,1.79-4.5,4v74c0,2.21,2.29,4,4.5,4h42c2.21,0,3.5-1.79,3.5-4V138c0-2.21-1.29-4-3.5-4Z"/><path class="cls-1" d="M55.5,134c-2.21,0-4.5,1.79-4.5,4v74c0,2.21,2.29,4,4.5,4h42c2.21,0,3.5-1.79,3.5-4V138c0-2.21-1.29-4-3.5-4Z"/><rect class="cls-2" x="51" y="143" width="50" height="55"/><line class="cls-6" x1="62" y1="139" x2="69" y2="139"/><rect class="cls-3" x="59" y="168" width="34" height="23" rx="1" ry="1" transform="translate(152 359) rotate(180)"/><line class="cls-7" x1="61" y1="150" x2="91" y2="150"/><line class="cls-7" x1="61" y1="154" x2="91" y2="154"/><line class="cls-7" x1="61" y1="158" x2="91" y2="158"/><line class="cls-7" x1="68" y1="162" x2="84" y2="162"/><line class="cls-5" x1="70" y1="204" x2="82" y2="204"/><path class="cls-4" d="M86.88,216a12,12,0,0,0-20.76,0Z"/></svg>