<svg id="Layer_1" data-name="Layer 1" xmlns="http://www.w3.org/2000/svg" viewBox="0 0 256 256"><defs><style>.cls-1{fill:#3498db;}.cls-2{fill:#f2f2f2;}.cls-3{fill:#f1a85e;}.cls-11,.cls-12,.cls-13,.cls-14,.cls-4,.cls-5,.cls-7{fill:none;stroke-linecap:round;stroke-width:2px;}.cls-4{stroke:#fff;}.cls-13,.cls-4,.cls-5,.cls-7{stroke-miterlimit:10;}.cls-5{stroke:#cecece;}.cls-15,.cls-6{fill:#24b574;}.cls-6{fill-rule:evenodd;}.cls-7{stroke:#9e9e9e;}.cls-8{opacity:0.3;}.cls-9{fill:#083d58;}.cls-10{fill:#d44c57;}.cls-11{stroke:#d44c57;}.cls-11,.cls-12,.cls-14{stroke-linejoin:round;}.cls-12{stroke:#3498db;}.cls-13{stroke:#f1a85e;}.cls-14{stroke:#24b574;}</style></defs><title>wireframes</title><path class="cls-1" d="M71,40c-4.42,0-9,3.33-9,7.75v160.5c0,4.42,4.58,7.75,9,7.75H183c4.42,0,7-3.33,7-7.75V47.75c0-4.42-2.58-7.75-7-7.75Z"/><rect class="cls-2" x="62" y="60" width="128" height="48"/><path class="cls-2" d="M62,176H190a0,0,0,0,1,0,0v31.59a8.41,8.41,0,0,1-8.41,8.41H71a9,9,0,0,1-9-9V176A0,0,0,0,1,62,176Z"/><rect class="cls-3" x="75" y="126" width="24" height="24" rx="12" ry="12"/><rect class="cls-3" x="114" y="126" width="24" height="24" rx="12" ry="12"/><rect class="cls-3" x="153" y="126" width="24" height="24" rx="12" ry="12"/><line class="cls-4" x1="73" y1="160" x2="103" y2="160"/><line class="cls-4" x1="73" y1="164" x2="103" y2="164"/><line class="cls-4" x1="80" y1="168" x2="96" y2="168"/><line class="cls-4" x1="78" y1="50" x2="94" y2="50"/><line class="cls-4" x1="152" y1="50" x2="159" y2="50"/><line class="cls-4" x1="174" y1="50" x2="181" y2="50"/><line class="cls-4" x1="163" y1="50" x2="170" y2="50"/><line class="cls-5" x1="78" y1="78" x2="108" y2="78"/><line class="cls-5" x1="78" y1="82" x2="108" y2="82"/><line class="cls-5" x1="78" y1="86" x2="108" y2="86"/><line class="cls-5" x1="85" y1="90" x2="101" y2="90"/><line class="cls-4" x1="112" y1="160" x2="142" y2="160"/><line class="cls-4" x1="112" y1="164" x2="142" y2="164"/><line class="cls-4" x1="119" y1="168" x2="135" y2="168"/><line class="cls-5" x1="117" y1="184" x2="137" y2="184"/><line class="cls-4" x1="117" y1="116" x2="137" y2="116"/><line class="cls-4" x1="156" y1="116" x2="176" y2="116"/><line class="cls-4" x1="78" y1="116" x2="98" y2="116"/><path class="cls-6" d="M180,216H72V192.63c0-.35.78-.62,1.13-.62H180c.28,0,0,.22,0,.5Z"/><rect class="cls-1" x="126" y="67" width="50" height="34" rx="1" ry="1" transform="translate(302 168) rotate(180)"/><line class="cls-7" x1="151" y1="160" x2="181" y2="160"/><line class="cls-7" x1="151" y1="164" x2="181" y2="164"/><line class="cls-7" x1="158" y1="168" x2="174" y2="168"/><path class="cls-8" d="M208.5,154h-74c-2.21,0-4.5,1.79-4.5,4v54c0,2.21,2.29,4,4.5,4h74c2.21,0,3.5-1.79,3.5-4V158C212,155.79,210.71,154,208.5,154Z"/><path class="cls-9" d="M218,163c0-4.42-3.08-8-7.5-8h-66c-4.42,0-8.5,3.58-8.5,8v49c0,2.21,2.29,4,4.5,4h74c2.21,0,3.5-1.79,3.5-4Z"/><path class="cls-2" d="M140.5,154H214a4,4,0,0,1,4,4v6a0,0,0,0,1,0,0H136a0,0,0,0,1,0,0v-5.5A4.5,4.5,0,0,1,140.5,154Z"/><rect class="cls-10" x="139" y="157" width="4" height="4" rx="2" ry="2"/><line class="cls-11" x1="144" y1="169" x2="175" y2="169"/><line class="cls-12" x1="181" y1="169" x2="212" y2="169"/><line class="cls-11" x1="144" y1="175" x2="159" y2="175"/><line class="cls-12" x1="155" y1="181" x2="171" y2="181"/><line class="cls-11" x1="204" y1="175" x2="212" y2="175"/><line class="cls-11" x1="178" y1="181" x2="186" y2="181"/><line class="cls-13" x1="144" y1="181" x2="149" y2="181"/><line class="cls-14" x1="166" y1="175" x2="198" y2="175"/><line class="cls-14" x1="192" y1="181" x2="212" y2="181"/><line class="cls-11" x1="144" y1="205" x2="159" y2="205"/><line class="cls-12" x1="155" y1="211" x2="171" y2="211"/><line class="cls-11" x1="204" y1="205" x2="212" y2="205"/><line class="cls-11" x1="178" y1="211" x2="186" y2="211"/><line class="cls-13" x1="144" y1="211" x2="149" y2="211"/><line class="cls-14" x1="166" y1="205" x2="198" y2="205"/><line class="cls-14" x1="192" y1="211" x2="212" y2="211"/><line class="cls-14" x1="144" y1="187" x2="175" y2="187"/><line class="cls-13" x1="181" y1="187" x2="212" y2="187"/><line class="cls-11" x1="144" y1="193" x2="159" y2="193"/><line class="cls-13" x1="155" y1="199" x2="171" y2="199"/><line class="cls-11" x1="204" y1="193" x2="212" y2="193"/><line class="cls-12" x1="178" y1="199" x2="186" y2="199"/><line class="cls-12" x1="144" y1="199" x2="149" y2="199"/><line class="cls-14" x1="166" y1="193" x2="198" y2="193"/><line class="cls-14" x1="192" y1="199" x2="212" y2="199"/><rect class="cls-3" x="146" y="157" width="4" height="4" rx="2" ry="2"/><rect class="cls-15" x="153" y="157" width="4" height="4" rx="2" ry="2"/><path class="cls-8" d="M48,134c-2.21,0-5,1.79-5,4v74c0,2.21,2.79,4,5,4H90c2.21,0,3-1.79,3-4V138c0-2.21-.79-4-3-4Z"/><path class="cls-1" d="M42,134c-2.21,0-5,1.79-5,4v74c0,2.21,2.79,4,5,4H84c2.21,0,3-1.79,3-4V138c0-2.21-.79-4-3-4Z"/><rect class="cls-2" x="37" y="143" width="50" height="55"/><line class="cls-4" x1="48" y1="139" x2="55" y2="139"/><rect class="cls-1" x="45" y="168" width="34" height="23" rx="1" ry="1" transform="translate(124 359) rotate(180)"/><line class="cls-5" x1="48" y1="150" x2="78" y2="150"/><line class="cls-5" x1="48" y1="154" x2="78" y2="154"/><line class="cls-5" x1="48" y1="158" x2="78" y2="158"/><line class="cls-5" x1="55" y1="162" x2="71" y2="162"/><line class="cls-4" x1="56" y1="204" x2="69" y2="204"/><path class="cls-3" d="M73.4,216a12,12,0,0,0-21.8,0Z"/></svg>